<svg width="34" height="35" viewBox="0 0 34 35" fill="none" xmlns="http://www.w3.org/2000/svg">
<circle cx="16.8418" cy="17.6465" r="16.748" fill="white"/>
<path d="M19.209 15.6484C18.379 15.6484 17.709 14.9784 17.709 14.1484V9.14844C17.709 8.31844 18.379 7.64844 19.209 7.64844C20.039 7.64844 20.709 8.31844 20.709 9.14844V14.1484C20.709 14.9784 20.039 15.6484 19.209 15.6484Z" fill="white" stroke="#96B7DA" stroke-width="2" stroke-linecap="round" stroke-linejoin="round"/>
<path d="M25.209 15.6484H23.709V14.1484C23.709 13.3184 24.379 12.6484 25.209 12.6484C26.039 12.6484 26.709 13.3184 26.709 14.1484C26.709 14.9784 26.039 15.6484 25.209 15.6484Z" fill="white" stroke="#96B7DA" stroke-width="2" stroke-linecap="round" stroke-linejoin="round"/>
<path d="M14.209 19.6484C15.039 19.6484 15.709 20.3184 15.709 21.1484V26.1484C15.709 26.9784 15.039 27.6484 14.209 27.6484C13.379 27.6484 12.709 26.9784 12.709 26.1484V21.1484C12.709 20.3184 13.379 19.6484 14.209 19.6484Z" fill="white" stroke="#96B7DA" stroke-width="2" stroke-linecap="round" stroke-linejoin="round"/>
<path d="M8.20898 19.6484H9.70898V21.1484C9.70898 21.9784 9.03898 22.6484 8.20898 22.6484C7.37898 22.6484 6.70898 21.9784 6.70898 21.1484C6.70898 20.3184 7.37898 19.6484 8.20898 19.6484Z" fill="white" stroke="#96B7DA" stroke-width="2" stroke-linecap="round" stroke-linejoin="round"/>
<path d="M18.709 20.1484C18.709 19.3184 19.379 18.6484 20.209 18.6484H25.209C26.039 18.6484 26.709 19.3184 26.709 20.1484C26.709 20.9784 26.039 21.6484 25.209 21.6484H20.209C19.379 21.6484 18.709 20.9784 18.709 20.1484Z" fill="white" stroke="#96B7DA" stroke-width="2" stroke-linecap="round" stroke-linejoin="round"/>
<path d="M20.209 24.6484H18.709V26.1484C18.709 26.9784 19.379 27.6484 20.209 27.6484C21.039 27.6484 21.709 26.9784 21.709 26.1484C21.709 25.3184 21.039 24.6484 20.209 24.6484Z" fill="white" stroke="#96B7DA" stroke-width="2" stroke-linecap="round" stroke-linejoin="round"/>
<path d="M14.709 15.1484C14.709 14.3184 14.039 13.6484 13.209 13.6484H8.20898C7.37898 13.6484 6.70898 14.3184 6.70898 15.1484C6.70898 15.9784 7.37898 16.6484 8.20898 16.6484H13.209C14.039 16.6484 14.709 15.9784 14.709 15.1484Z" fill="white" stroke="#96B7DA" stroke-width="2" stroke-linecap="round" stroke-linejoin="round"/>
<path d="M13.209 10.6484H14.709V9.14844C14.709 8.31844 14.039 7.64844 13.209 7.64844C12.379 7.64844 11.709 8.31844 11.709 9.14844C11.709 9.97844 12.379 10.6484 13.209 10.6484Z" fill="white" stroke="#96B7DA" stroke-width="2" stroke-linecap="round" stroke-linejoin="round"/>
</svg>
